<svg xmlns="http://www.w3.org/2000/svg" viewBox="0 0 1600 900" role="img" aria-labelledby="title desc">
  <title id="title">바디샷 분석 일러스트</title>
  <desc id="desc">압박형 상대에게 바디샷이 들어가는 순간을 도식적으로 표현한 전술 이미지</desc>
  <defs>
    <linearGradient id="bg2" x1="0" y1="0" x2="1" y2="1">
      <stop offset="0%" stop-color="#151515"/>
      <stop offset="100%" stop-color="#2a0f10"/>
    </linearGradient>
  </defs>
  <rect width="1600" height="900" fill="url(#bg2)"/>
  <g opacity="0.15" stroke="#ffffff" fill="none">
    <line x1="0" y1="720" x2="1600" y2="720" stroke-width="4"/>
    <line x1="250" y1="150" x2="250" y2="820" stroke-width="3"/>
    <line x1="1350" y1="150" x2="1350" y2="820" stroke-width="3"/>
  </g>
  <g transform="translate(560 500)">
    <circle cy="-175" r="42" fill="#0d0d0d" stroke="#ffffff" stroke-opacity="0.2" stroke-width="4"/>
    <path d="M-40 -132 L40 -132 L78 20 L42 178 L-42 178 L-78 20 Z" fill="#0d0d0d" stroke="#ffffff" stroke-opacity="0.2" stroke-width="4"/>
    <path d="M-120 -35 L-38 0 M85 -30 L35 10 M-30 178 L-55 295 M28 178 L65 295" stroke="#0d0d0d" stroke-width="30" stroke-linecap="round"/>
  </g>
  <g transform="translate(1030 505)">
    <circle cy="-175" r="42" fill="#2b2b2b" stroke="#ffffff" stroke-opacity="0.2" stroke-width="4"/>
    <path d="M-40 -132 L40 -132 L70 12 L35 170 L-55 170 L-85 15 Z" fill="#2b2b2b" stroke="#ffffff" stroke-opacity="0.2" stroke-width="4"/>
    <path d="M-122 -28 L-45 -2 M98 -25 L30 4 M-45 170 L-80 288 M24 170 L90 262" stroke="#2b2b2b" stroke-width="30" stroke-linecap="round"/>
  </g>
  <path d="M690 505 C785 495 842 488 900 482" fill="none" stroke="#ff6b57" stroke-width="18" stroke-linecap="round"/>
  <circle cx="908" cy="482" r="18" fill="#ff6b57"/>
  <circle cx="908" cy="482" r="54" fill="none" stroke="#ff6b57" stroke-opacity="0.35" stroke-width="8"/>
  <g fill="#ffffff" font-family="Arial, sans-serif">
    <text x="120" y="120" font-size="46" font-weight="700">Body Shot Window</text>
    <text x="120" y="168" font-size="26" opacity="0.72">Pressure slows when the midline opens.</text>
    <text x="845" y="420" font-size="24" fill="#ff9f8f">impact point</text>
  </g>
</svg>
